<?xml version="1.0" encoding="UTF-8" standalone="no"?>
<!DOCTYPE svg PUBLIC "-//W3C//DTD SVG 1.1//EN" "http://www.w3.org/Graphics/SVG/1.1/DTD/svg11.dtd">
<svg width="100%" height="100%" viewBox="0 0 1126 430" version="1.1" xmlns="http://www.w3.org/2000/svg" xmlns:xlink="http://www.w3.org/1999/xlink" xml:space="preserve" xmlns:serif="http://www.serif.com/" style="fill-rule:evenodd;clip-rule:evenodd;stroke-linejoin:round;stroke-miterlimit:2;">
    <g transform="matrix(1,0,0,1,1342.29,-173.297)">
        <g transform="matrix(-8.33333,-1.02054e-15,1.02054e-15,-8.33333,3599.45,2499.11)">
            <g transform="matrix(0.1,0,0,0.1,0,-129.98)">
                <path d="M5520.99,3624.44C5526.21,3620.07 5531.73,3615.96 5537.55,3612.1C5589.27,3577.81 5648.2,3574.99 5665.04,3574.99L5804.51,3574.99L5813.15,3576.36L5820.91,3580.33L5827.1,3586.58L5830.91,3594.24L5832.32,3602.93L5830.92,3611.51L5827.01,3619.15L5820.72,3625.4L5820.59,3625.49C5820.49,3625.56 5813.21,3630.67 5808.29,3639.29C5818.07,3647.34 5830.41,3658.39 5841.88,3670.9C5857.7,3688.17 5871.56,3708.23 5876.85,3726.22L5878.08,3734.85L5876.67,3743.14L5872.89,3750.56L5866.95,3756.63L5866.72,3756.8L5858.99,3760.79L5850.68,3762.18L5842.47,3761.07L5834.85,3757.51C5834.72,3757.43 5834.59,3757.34 5834.46,3757.25C5834.43,3757.23 5832.4,3755.11 5829.1,3751.86C5828.63,3753.42 5828.12,3754.98 5827.55,3756.55C5819.99,3777.58 5824.52,3799.83 5839.43,3817.7C5866.04,3849.54 5905.25,3855.22 5905.65,3855.26C5905.81,3855.28 5905.97,3855.3 5906.12,3855.33L5915.6,3858.44L5923.24,3864.56L5928.36,3873.1L5930.09,3883.08L5928.28,3892.86L5923.13,3901.33L5915.22,3907.51L5905.39,3910.49C5903.35,3910.72 5899.64,3911.03 5894.51,3911.03C5883.88,3911.03 5865.88,3909.84 5844.57,3903.26C5847.56,3914.2 5849.33,3925.5 5849.05,3936.64C5848.55,3956.18 5843.32,3975.06 5833.15,3992.96C5838.74,3994.08 5843.97,3994.85 5848.08,3994.95L5848.24,3994.96L5857.63,3996.91L5865.66,4001.82L5871.62,4009.18L5874.72,4018.08L5874.74,4027.56L5871.58,4036.41L5865.66,4043.69L5857.44,4048.68C5857.25,4048.76 5857.06,4048.83 5856.87,4048.9C5856.53,4049.02 5832.4,4057.99 5801.34,4063.39L5800.98,4066.72L5797.38,4074.76L5791.29,4081.32L5783.37,4085.64L5774.22,4087.18C5772.63,4087.18 5746.53,4086.87 5720.67,4082.38L5717.84,4085.19C5717.57,4085.4 5717.29,4085.59 5717.02,4085.79L5709.96,4089.34L5702.22,4090.77L5694.36,4089.97L5686.97,4086.94C5684.12,4085.25 5668.42,4075.73 5649.68,4060.62L5649.67,4060.62C5640.34,4053.09 5618.44,4039.45 5601.97,4036.32L5601.76,4037.32L5596.84,4045.43L5589.19,4051.57L5579.84,4054.59L5570.47,4054.42L5561.52,4050.96L5554.23,4044.59L5549.47,4035.83C5548.73,4033.45 5544.2,4017.47 5546.03,3998.81C5543.1,3998.77 5540.17,3998.76 5537.25,3998.79C5533.13,3998.84 5529.08,3998.78 5525.28,3998.32C5522.28,4003.91 5516.38,4007.71 5509.59,4007.71L5472.72,4007.71C5461.72,4007.71 5450.14,4007.29 5440.22,4002.33C5434.43,3999.48 5429.53,3995.56 5425.7,3990.85C5412.66,4002.63 5395,4009.88 5375.57,4009.88C5360.36,4009.88 5345.75,4005.39 5333.59,3997.23C5321.17,4005.25 5305.2,4009.6 5287.72,4009.6C5287.21,4009.6 5286.7,4009.58 5286.19,4009.53L5263.99,4007.62C5262.26,4007.47 5260.61,4007.08 5259.06,4006.48C5257.04,4007.27 5254.84,4007.71 5252.54,4007.71L5212.66,4007.71C5210.34,4007.71 5208.11,4007.26 5206.06,4006.45C5204.02,4007.26 5201.79,4007.71 5199.46,4007.71L5113.09,4007.71C5111.45,4008.2 5109.72,4008.45 5108,4008.45L5107.55,4008.45C5104.83,4008.45 5102.26,4007.84 5099.96,4006.76C5097.74,4007.74 5095.29,4008.28 5092.77,4008.28C5091.86,4008.28 5090.91,4008.21 5089.98,4008.06L5088.55,4007.84L5021.14,4007.84C5015.75,4007.84 5010.64,4005.38 5007.25,4001.16C5003.88,3996.94 5002.61,3991.41 5003.8,3986.14L5008.84,3963.75C5010.52,3956.26 5016.82,3950.7 5024.46,3949.95C5025.05,3949.9 5025.63,3949.87 5026.2,3949.87C5026.84,3949.87 5027.48,3949.9 5028.11,3949.97L5028.11,3913.99C5028.11,3911.85 5028.11,3907.38 5027.66,3906.38C5027.63,3906.34 5027.52,3906.2 5027.27,3905.97C5023.64,3902.6 5021.59,3897.88 5021.59,3892.94L5021.59,3892.49C5021.59,3887.31 5023.81,3882.64 5027.35,3879.39C5024.4,3878.65 5022.4,3878.06 5021.53,3877.8C5015.59,3876.02 5010.88,3871.44 5008.95,3865.64L4996.87,3830.02C4975.71,3864.03 4936.37,3886.93 4891.43,3886.93C4861.94,3886.93 4834.86,3877.07 4813.75,3860.68C4815.37,3864.72 4815.6,3869.33 4814.19,3873.79C4811.6,3881.66 4804.3,3886.94 4796.02,3886.94L4735.68,3886.94C4729.65,3886.94 4723.92,3884.05 4720.37,3879.26L4664.39,3804.26L4664.39,3821.75C4664.39,3833.71 4668,3841.79 4671.03,3846.46C4673.49,3850.25 4675.82,3852.25 4676.14,3852.51C4682.68,3857.38 4685.4,3865.81 4682.87,3873.79C4680.29,3881.66 4672.99,3886.94 4664.72,3886.94L4598.95,3886.94C4590.58,3886.94 4583.26,3881.58 4580.73,3873.61C4578.26,3865.81 4580.98,3857.4 4587.49,3852.53C4587.82,3852.26 4590.21,3850.22 4592.69,3846.38C4595.69,3841.72 4599.28,3833.66 4599.28,3821.75L4599.28,3677.34C4599.28,3668.86 4604.94,3661.57 4612.86,3659.11C4608.54,3655.86 4605.75,3650.7 4605.75,3644.88L4605.75,3638.36C4605.75,3635.22 4606.58,3632.27 4608.03,3629.72C4603.53,3626.5 4600.61,3621.22 4600.61,3615.26C4600.61,3612.93 4601.06,3610.7 4601.88,3608.67L4604.09,3602.2C4606.56,3595.01 4613.32,3590.18 4620.92,3590.18L4632.43,3590.18C4635.45,3589.11 4638.72,3588.53 4642.12,3588.53L4963.54,3588.53C4964.27,3588.43 4965,3588.39 4965.73,3588.39C4966.46,3588.39 4967.19,3588.43 4967.92,3588.53L5485.6,3588.53C5488.99,3588.53 5492.25,3589.11 5495.27,3590.17L5505.65,3590.17C5515.48,3590.17 5523.44,3598.31 5523.44,3608.13C5523.44,3611.38 5522.56,3614.47 5520.99,3617.15L5520.99,3624.44Z" style="fill:white;"/>
            </g>
            <g>
                <g>
                    <g transform="matrix(0.1,0,0,0.1,0,-130.463)">
                        <path d="M5492.4,3647.01C5484.94,3647.01 5480.87,3643.12 5480.87,3638.05C5480.87,3633.15 5485.16,3629.3 5489.73,3628.25L5481.71,3618.17C5479.37,3615.28 5475.86,3612.38 5472.69,3610.38L5477.81,3610.38C5480.76,3610.38 5482.6,3611.1 5484.27,3613.16L5491.06,3621.57L5496.18,3629.42C5491.73,3630.08 5486.55,3632.14 5486.55,3637.38C5486.55,3641.39 5490.01,3643.72 5493.74,3643.56C5495.02,3643.5 5496.24,3643.34 5497.52,3643.12L5497.52,3618.17C5497.52,3615.61 5497.86,3611.55 5495.02,3610.54L5495.02,3610.38L5505.65,3610.38L5505.65,3610.54C5502.81,3611.55 5503.2,3615.66 5503.2,3618.17L5503.2,3639.16C5503.2,3641.72 5502.81,3645.79 5505.65,3646.84L5505.65,3647.01" style="fill:rgb(32,35,37);fill-rule:nonzero;"/>
                    </g>
                    <g transform="matrix(0.1,0,0,0.1,0,-130.431)">
                        <path d="M5413.38,3628.77C5413.38,3617.41 5422.79,3609.16 5433.88,3609.16C5444.89,3609.16 5454.2,3617.07 5454.2,3628.48C5454.2,3639.07 5445.02,3647.91 5433.31,3647.64C5421.63,3647.69 5413.38,3638.78 5413.38,3628.77M5447.84,3628.98C5447.84,3621.19 5442.34,3613.18 5433.59,3613.18C5425.13,3613.18 5419.73,3619.36 5419.73,3627.66C5419.73,3635.78 5424.91,3643.64 5433.7,3643.64C5442.34,3643.64 5447.84,3637.39 5447.84,3628.98" style="fill:rgb(32,35,37);fill-rule:nonzero;"/>
                    </g>
                    <g transform="matrix(0.1,0,0,0.1,0,-130.464)">
                        <path d="M5371.62,3614.4C5367.84,3614.18 5364.55,3615.45 5361.77,3617.79L5361.59,3617.79L5364.48,3610.38L5387.38,3610.38L5387.38,3610.56C5384.54,3611.56 5384.87,3615.68 5384.87,3618.19L5384.87,3639.18C5384.87,3641.74 5384.54,3645.79 5387.38,3646.86L5387.38,3647.02L5376.73,3647.02L5376.73,3646.86C5379.57,3645.79 5379.18,3641.68 5379.18,3639.18L5379.18,3614.9" style="fill:rgb(32,35,37);fill-rule:nonzero;"/>
                    </g>
                    <g transform="matrix(0.1,0,0,0.1,0,-130.435)">
                        <path d="M5328.02,3614.77L5320.95,3614.1C5317.27,3613.77 5313.43,3614.94 5310.64,3617.39L5310.48,3617.39L5312.98,3610.1L5336.21,3610.1L5336.21,3610.26C5333.36,3611.26 5333.7,3615.38 5333.7,3617.89L5333.7,3638.88C5333.7,3641.44 5333.36,3645.51 5336.21,3646.56L5336.21,3646.73L5318.39,3646.73C5317.43,3646.73 5316.5,3646.62 5315.77,3647.01L5315.61,3647.01L5315.61,3640.49L5315.77,3640.49C5317.5,3642.5 5319.77,3642.72 5322.34,3642.72C5324.29,3642.72 5326.23,3642.67 5328.02,3642.33L5328.02,3631.98L5321.39,3631.98C5320.5,3631.98 5319.61,3631.98 5318.95,3632.31L5318.77,3632.31L5318.77,3626.41L5318.95,3626.41C5319.84,3628.02 5322.16,3627.97 5323.89,3627.97L5328.02,3627.97" style="fill:rgb(32,35,37);fill-rule:nonzero;"/>
                    </g>
                    <g transform="matrix(0.1,0,0,0.1,0,-130.463)">
                        <path d="M5233.4,3647.01C5226.16,3647.01 5220.65,3643.5 5220.65,3637.27C5220.65,3630.87 5226.61,3626.8 5232.9,3626.8C5234.29,3626.8 5235.68,3626.97 5236.96,3627.58C5232.17,3627.86 5227,3630.81 5227,3636.15C5227,3641.05 5230.45,3643 5234.9,3643C5236.24,3643 5237.52,3642.89 5238.8,3642.67L5238.8,3617.56C5238.8,3614.44 5238.85,3612.22 5235.9,3610.54L5235.9,3610.38L5246.98,3610.38L5246.98,3610.54C5244.15,3611.55 5244.48,3615.66 5244.48,3618.17L5244.48,3639.16C5244.48,3641.67 5244.15,3645.73 5246.93,3646.84L5246.93,3647.01" style="fill:rgb(32,35,37);fill-rule:nonzero;"/>
                    </g>
                    <g transform="matrix(0.1,0,0,0.1,0,-130.464)">
                        <path d="M5180.06,3614.4C5176.28,3614.18 5172.99,3615.45 5170.21,3617.79L5170.04,3617.79L5172.93,3610.38L5195.82,3610.38L5195.82,3610.56C5192.98,3611.56 5193.31,3615.68 5193.31,3618.19L5193.31,3639.18C5193.31,3641.74 5192.98,3645.79 5195.82,3646.86L5195.82,3647.02L5185.18,3647.02L5185.18,3646.86C5188.02,3645.79 5187.63,3641.68 5187.63,3639.18L5187.63,3614.9" style="fill:rgb(32,35,37);fill-rule:nonzero;"/>
                    </g>
                    <g transform="matrix(0.1,0,0,0.1,0,-130.463)">
                        <path d="M5134.68,3624.13L5137.57,3616.28C5138.75,3613.16 5139.13,3611.55 5136.46,3610.55L5136.46,3610.38L5146.71,3610.38L5146.71,3610.55C5143.48,3612.16 5142.53,3615.28 5141.3,3618.45L5132.01,3641.67C5131.23,3643.67 5130.17,3646.01 5132.84,3646.84L5132.84,3647.01L5124.04,3647.01L5112.46,3618.45C5111.18,3615.28 5110.18,3612.16 5107.01,3610.55L5107.01,3610.38L5118.42,3610.38L5118.42,3610.55C5115.7,3611.77 5116.14,3612.38 5117.64,3616.28L5120.64,3624.13L5134.68,3624.13ZM5127.71,3642.28L5133.23,3628.25L5122.26,3628.25" style="fill:rgb(32,35,37);fill-rule:nonzero;"/>
                    </g>
                    <g transform="matrix(0.1,0,0,0.1,0,-130.464)">
                        <path d="M5072.42,3617.63C5072.42,3614.28 5072.42,3612.61 5069.58,3610.56L5069.58,3610.38L5080.44,3610.38L5080.44,3610.56C5077.71,3611.94 5078.1,3615.56 5078.1,3618.19L5078.1,3626.42L5087.34,3641.28C5088.84,3643.74 5089.96,3645.58 5092.63,3647.02L5087.56,3647.02C5085.78,3647.02 5084.11,3646.63 5083.39,3645.47L5074.48,3630.94L5067.58,3641.28C5066.63,3642.67 5065.35,3645.35 5068.47,3646.85L5068.47,3647.02L5058.72,3647.02L5072.42,3626.42" style="fill:rgb(32,35,37);fill-rule:nonzero;"/>
                    </g>
                    <g transform="matrix(0.1,0,0,0.1,0,-130.463)">
                        <path d="M5033.99,3639.16C5033.99,3641.72 5033.6,3645.79 5036.44,3646.84L5036.44,3647.01L5025.86,3647.01L5025.86,3646.84C5028.65,3645.79 5028.31,3641.66 5028.31,3639.16L5028.31,3618.17C5028.31,3615.66 5028.65,3611.6 5025.86,3610.54L5025.86,3610.38L5036.44,3610.38L5036.44,3610.54C5033.66,3611.55 5033.99,3615.66 5033.99,3618.17" style="fill:rgb(32,35,37);fill-rule:nonzero;"/>
                    </g>
                    <g transform="matrix(0.1,0,0,0.1,0,-130.642)">
                        <path d="M4992.95,3619.41C4992.95,3616.29 4993.02,3614.06 4990.06,3612.34L4990.06,3612.16L4999.91,3612.16L4999.91,3612.34C4996.96,3614.06 4996.96,3616.29 4996.96,3619.41L4996.96,3641.63C4996.96,3644.73 4996.96,3646.97 4999.86,3648.63L4999.86,3648.8L4991.72,3648.8L4991.72,3648.75C4991.5,3648.07 4991.29,3647.79 4990.89,3647.36L4990.11,3646.23L4969.75,3620.52L4969.75,3641.63C4969.75,3644.73 4969.68,3646.97 4972.63,3648.63L4972.63,3648.8L4962.84,3648.8L4962.84,3648.63C4965.73,3646.97 4965.73,3644.73 4965.73,3641.63L4965.73,3610.38C4969.68,3611.72 4971.41,3613.56 4973.86,3616.73L4992.95,3640.95" style="fill:rgb(32,35,37);fill-rule:nonzero;"/>
                    </g>
                    <g transform="matrix(0.1,0,0,0.1,0,-130.463)">
                        <path d="M4906.48,3640.55L4906.64,3640.55C4908.93,3643.12 4913.16,3643.89 4916.56,3643.89C4925.24,3643.89 4931.87,3638.21 4931.87,3629.25C4931.87,3620.28 4924.74,3613.5 4915.94,3613.5C4913.39,3613.5 4910.71,3613.84 4908.2,3614.55L4908.2,3622.57C4908.2,3625.14 4908.26,3627.85 4910.76,3628.87L4910.76,3629.03L4902.25,3629.03L4902.25,3628.87C4902.53,3628.19 4902.53,3627.3 4902.53,3626.46L4902.53,3613.66C4902.53,3612.84 4902.58,3611.93 4902.25,3611.16C4906.7,3610.32 4911.04,3609.48 4915.55,3609.48C4929.8,3609.48 4938.21,3617.28 4938.21,3628.48C4938.21,3640.44 4928.69,3647.91 4915.22,3647.91C4912.27,3647.91 4909.37,3647.57 4906.48,3646.96" style="fill:rgb(32,35,37);fill-rule:nonzero;"/>
                    </g>
                    <g transform="matrix(0.1,0,0,0.1,0,-130.463)">
                        <path d="M4808.47,3640.55L4808.63,3640.55C4810.92,3643.12 4815.15,3643.89 4818.55,3643.89C4827.23,3643.89 4833.85,3638.21 4833.85,3629.25C4833.85,3620.28 4826.73,3613.5 4817.93,3613.5C4815.38,3613.5 4812.7,3613.84 4810.19,3614.55L4810.19,3622.57C4810.19,3625.14 4810.25,3627.85 4812.75,3628.87L4812.75,3629.03L4804.24,3629.03L4804.24,3628.87C4804.51,3628.19 4804.51,3627.3 4804.51,3626.46L4804.51,3613.66C4804.51,3612.84 4804.57,3611.93 4804.24,3611.16C4808.69,3610.32 4813.03,3609.48 4817.54,3609.48C4831.79,3609.48 4840.2,3617.28 4840.2,3628.48C4840.2,3640.44 4830.68,3647.91 4817.21,3647.91C4814.26,3647.91 4811.36,3647.57 4808.47,3646.96" style="fill:rgb(32,35,37);fill-rule:nonzero;"/>
                    </g>
                    <g transform="matrix(0.1,0,0,0.1,0,-130.463)">
                        <path d="M4768.92,3624.13L4771.82,3616.28C4772.99,3613.16 4773.38,3611.55 4770.7,3610.55L4770.7,3610.38L4780.95,3610.38L4780.95,3610.55C4777.72,3612.16 4776.77,3615.28 4775.55,3618.45L4766.25,3641.67C4765.47,3643.67 4764.42,3646.01 4767.09,3646.84L4767.09,3647.01L4758.29,3647.01L4746.71,3618.45C4745.43,3615.28 4744.43,3612.16 4741.26,3610.55L4741.26,3610.38L4752.67,3610.38L4752.67,3610.55C4749.94,3611.77 4750.39,3612.38 4751.89,3616.28L4754.9,3624.13L4768.92,3624.13ZM4761.97,3642.28L4767.47,3628.25L4756.51,3628.25" style="fill:rgb(32,35,37);fill-rule:nonzero;"/>
                    </g>
                    <g transform="matrix(0.1,0,0,0.1,0,-130.535)">
                        <path d="M4683.96,3644.22C4683.51,3645.4 4683.13,3646.5 4683.13,3647.68L4683.13,3647.73L4673.49,3647.73L4673.49,3647.57C4674.82,3647.18 4675.22,3645.57 4675.22,3644.27L4671.54,3616.95C4671.21,3614.32 4670.93,3612.82 4668.7,3611.27L4668.7,3611.09L4679.45,3611.09L4679.45,3611.27C4677.5,3611.88 4677.16,3613.56 4677.16,3615.45L4680.34,3642.27L4692.81,3610.38C4695.59,3612.5 4696.38,3614 4697.71,3617.11L4708.29,3642.22L4711.46,3618.29C4711.9,3614.88 4712.29,3612.43 4709.68,3611.27L4709.68,3611.09L4718.75,3611.09L4718.75,3611.27C4716.41,3613.32 4716.08,3616.06 4715.64,3619.06L4712.47,3642.38C4712.24,3643.95 4711.63,3646.18 4714.19,3647.57L4714.19,3647.73L4704.45,3647.73L4704.45,3647.68C4704.45,3646.79 4704,3645.95 4703.66,3645.16L4693.19,3620.61" style="fill:rgb(32,35,37);fill-rule:nonzero;"/>
                    </g>
                    <g transform="matrix(0.1,0,0,0.1,0,-130.435)">
                        <path d="M4635.95,3614.77L4628.88,3614.1C4625.21,3613.77 4621.37,3614.94 4618.58,3617.39L4618.42,3617.39L4620.92,3610.1L4644.14,3610.1L4644.14,3610.26C4641.29,3611.26 4641.63,3615.38 4641.63,3617.89L4641.63,3638.88C4641.63,3641.44 4641.29,3645.51 4644.14,3646.56L4644.14,3646.73L4626.32,3646.73C4625.37,3646.73 4624.43,3646.62 4623.71,3647.01L4623.54,3647.01L4623.54,3640.49L4623.71,3640.49C4625.43,3642.5 4627.71,3642.72 4630.28,3642.72C4632.22,3642.72 4634.17,3642.67 4635.95,3642.33L4635.95,3631.98L4629.33,3631.98C4628.44,3631.98 4627.55,3631.98 4626.88,3632.31L4626.72,3632.31L4626.72,3626.41L4626.88,3626.41C4627.77,3628.02 4630.11,3627.97 4631.83,3627.97L4635.95,3627.97" style="fill:rgb(32,35,37);fill-rule:nonzero;"/>
                    </g>
                </g>
                <g>
                    <g transform="matrix(0.1,0,0,0.1,0,-101.207)">
                        <path d="M4891.43,3579C4948.88,3579 4995.61,3535.67 4995.61,3482.41C4995.61,3429.16 4948.88,3385.83 4891.43,3385.83C4833.98,3385.83 4787.24,3429.16 4787.24,3482.41C4787.24,3535.67 4833.98,3579 4891.43,3579M4891.43,3417.93C4921.44,3417.93 4945.85,3446.86 4945.85,3482.41C4945.85,3517.97 4921.44,3546.9 4891.43,3546.9C4861.42,3546.9 4837,3517.97 4837,3482.41C4837,3446.86 4861.42,3417.93 4891.43,3417.93" style="fill:rgb(32,35,37);fill-rule:nonzero;"/>
                    </g>
                    <g transform="matrix(0.1,0,0,0.1,0,-101.202)">
                        <path d="M5182.41,3426.66L5236.23,3578.08C5236.41,3578.6 5236.91,3578.96 5237.48,3578.96L5318.91,3578.96C5319.48,3578.96 5319.98,3578.6 5320.16,3578.05C5320.34,3577.52 5320.16,3576.93 5319.7,3576.58C5296.36,3558.86 5305.3,3536.07 5305.73,3535.05L5339,3439.93C5341.71,3432.14 5347.36,3426.91 5353.05,3426.91C5357.18,3426.91 5361,3429.55 5364.11,3434.51C5370.05,3443.98 5386.29,3470.37 5390.27,3476.83C5364.91,3484.96 5352.07,3501.01 5352.07,3524.59C5352.07,3547.12 5361.18,3562.74 5379.2,3571C5394.34,3577.97 5413.18,3578.93 5431.27,3578.93C5433.77,3578.93 5436.2,3578.92 5438.57,3578.9C5440.43,3578.88 5442.25,3578.87 5444,3578.87C5444.16,3578.92 5444.32,3578.96 5444.48,3578.96L5511.95,3578.96C5512.45,3578.96 5512.91,3578.67 5513.14,3578.22C5513.36,3577.77 5513.3,3577.23 5513,3576.83C5499.73,3559.48 5495.46,3542.87 5495.46,3508.49L5495.46,3440.77C5495.46,3401.67 5506.34,3388.13 5506.45,3388C5506.79,3387.6 5506.86,3387.06 5506.64,3386.59C5506.43,3386.13 5505.95,3385.82 5505.45,3385.82L5444.48,3385.82C5443.75,3385.82 5443.16,3386.42 5443.16,3387.15L5443.16,3463.73L5421.29,3421.08C5408.64,3396.57 5398.45,3385.82 5353.84,3385.82L5300.64,3385.82C5299.91,3385.82 5299.32,3386.42 5299.32,3387.15C5299.32,3387.75 5299.71,3388.25 5300.25,3388.41C5306.11,3390.92 5310.07,3394.69 5311.98,3399.63C5315.64,3408.99 5310.89,3419.58 5310.84,3419.69C5310.82,3419.73 5310.8,3419.77 5310.79,3419.82L5303.55,3441.15L5270.25,3441.15C5270.18,3441.15 5270.13,3441.15 5270.07,3441.16C5270.05,3441.16 5268.7,3441.35 5266.59,3441.35C5259.29,3441.35 5246.18,3439.23 5240.59,3425.11L5238.39,3418.59C5235.23,3409.61 5235.57,3401.8 5239.36,3395.36C5242.2,3390.54 5246.02,3388.32 5246.05,3388.3C5246.57,3388.01 5246.84,3387.39 5246.68,3386.82C5246.54,3386.23 5246,3385.82 5245.41,3385.82L5160.79,3385.82C5160.21,3385.82 5159.7,3386.19 5159.54,3386.74C5159.36,3387.28 5159.55,3387.88 5160.02,3388.22C5173.43,3397.96 5182.3,3426.32 5182.41,3426.66M5443.16,3489.55L5443.16,3546.12C5440,3546.69 5436.91,3546.97 5434,3546.97C5416.89,3546.97 5407.07,3537.69 5407.07,3521.52C5407.07,3508.14 5413.39,3491.85 5443.16,3489.55M5293.21,3471.59L5274.75,3525.97L5256.34,3471.59" style="fill:rgb(32,35,37);fill-rule:nonzero;"/>
                    </g>
                    <g transform="matrix(0.1,0,0,0.1,0,-101.312)">
                        <path d="M5010.61,3490.66L5088.27,3490.66C5088.93,3490.66 5089.5,3490.16 5089.58,3489.49C5089.66,3488.83 5089.23,3488.21 5088.57,3488.05C5088.31,3487.99 5061.41,3481.15 5061.41,3449.99L5061.41,3415.78C5063.06,3415.52 5066.54,3415.07 5071.01,3415.07C5080.29,3415.07 5093.67,3416.95 5104.76,3425.93C5118.04,3436.69 5124.78,3454.95 5124.78,3480.2C5124.78,3503.02 5119.03,3520.68 5107.67,3532.69C5097.91,3543.03 5084.5,3548.5 5068.9,3548.5C5047.36,3548.5 5025.41,3538 5011.63,3521.09C5011.23,3520.61 5010.53,3520.48 5009.97,3520.78C5009.41,3521.09 5009.15,3521.75 5009.36,3522.36L5025.79,3570.84C5025.93,3571.24 5026.25,3571.55 5026.65,3571.68C5026.89,3571.75 5051.04,3579.16 5079.9,3579.16C5106.72,3579.16 5128.87,3572.99 5145.72,3560.81C5168.15,3544.59 5180.65,3517.95 5182.85,3481.62C5183.92,3464 5176.69,3437.4 5158.09,3417.64C5138.79,3397.13 5111.13,3386.72 5075.91,3386.72C5056.26,3386.72 5034.17,3390.06 5010.26,3396.65C5009.69,3396.81 5009.29,3397.33 5009.29,3397.92L5009.29,3489.33C5009.29,3490.07 5009.88,3490.66 5010.61,3490.66" style="fill:rgb(32,35,37);fill-rule:nonzero;"/>
                    </g>
                    <g transform="matrix(0.1,0,0,0.1,0,-101.217)">
                        <path d="M4598.95,3579.1L4664.72,3579.1C4665.28,3579.1 4665.79,3578.73 4665.97,3578.18C4666.15,3577.63 4665.95,3577.04 4665.48,3576.7C4665.43,3576.67 4660.77,3573.3 4656.1,3566.09C4651.76,3559.41 4646.59,3548.01 4646.59,3531.7L4646.59,3460.62L4734.63,3578.57C4734.87,3578.91 4735.27,3579.1 4735.68,3579.1L4796.02,3579.1C4796.59,3579.1 4797.1,3578.73 4797.28,3578.18C4797.46,3577.63 4797.26,3577.04 4796.79,3576.7C4796.74,3576.67 4792.08,3573.3 4787.41,3566.09C4783.07,3559.41 4777.9,3548.01 4777.9,3531.7L4777.9,3438.28C4777.9,3422.52 4779.38,3405.66 4796.96,3388.08C4797.34,3387.7 4797.45,3387.13 4797.24,3386.64C4797.04,3386.15 4796.55,3385.83 4796.02,3385.83L4730.25,3385.83C4729.51,3385.83 4728.92,3386.42 4728.92,3387.15C4728.92,3387.58 4729.13,3387.96 4729.44,3388.2C4746.92,3405.74 4748.38,3422.56 4748.38,3438.28L4748.38,3500.53C4740.34,3490.13 4715.28,3457.74 4690.39,3425.28C4660.61,3386.43 4620.19,3385.97 4618.38,3385.97C4617.65,3385.98 4617.07,3386.57 4617.07,3387.29L4617.07,3531.7C4617.07,3547.94 4611.94,3559.31 4607.63,3565.98C4602.97,3573.22 4598.23,3576.67 4598.18,3576.7C4597.71,3577.04 4597.52,3577.63 4597.69,3578.18C4597.87,3578.73 4598.37,3579.1 4598.95,3579.1" style="fill:rgb(32,35,37);fill-rule:nonzero;"/>
                    </g>
                </g>
                <g transform="matrix(0.1,0,0,0.1,0,-89.133)">
                    <path d="M5639.04,3601.55C5641.81,3600.96 5645.54,3600.39 5649.52,3600.39C5662.31,3600.39 5670.34,3606.02 5673.45,3617.13C5666,3614.32 5649.57,3607.83 5639.04,3601.55M5503.8,3449.55C5516.72,3469.14 5534.95,3485.24 5557.96,3497.4C5603.52,3521.46 5652.63,3522.15 5658.08,3522.15C5692.41,3522.15 5732.59,3528.83 5732.86,3547.65C5732.91,3551.74 5731.54,3555.24 5728.77,3558.04C5723.36,3563.53 5712.84,3566.42 5698.32,3566.42C5687.88,3566.42 5675.66,3564.86 5663,3561.91C5625.38,3553.14 5590.63,3527.8 5590.29,3527.55C5590.04,3527.38 5589.77,3527.29 5589.49,3527.29L5589.47,3527.29C5588.74,3527.29 5588.15,3527.88 5588.15,3528.61C5588.15,3528.98 5588.29,3529.3 5588.54,3529.54C5594.56,3537.91 5590.55,3554.64 5590.52,3554.81C5590.38,3555.37 5590.61,3555.94 5591.09,3556.25C5591.57,3556.55 5592.2,3556.51 5592.64,3556.15C5592.66,3556.13 5595.55,3553.77 5598.86,3552.63C5599.36,3552.46 5600.04,3552.37 5600.86,3552.37C5610,3552.37 5632.96,3562.64 5645.11,3568.7C5653.86,3573.09 5654.18,3577.31 5654.18,3577.32C5654.18,3577.89 5654.54,3578.4 5655.08,3578.58C5657.27,3579.28 5659.73,3579.77 5662.45,3580.05C5659.72,3581.01 5655.88,3581.93 5651.14,3581.93C5648.55,3581.93 5645.89,3581.65 5643.23,3581.11C5624.27,3577.2 5590.25,3565.09 5576.48,3555.89C5569.68,3551.36 5567.21,3548.03 5565.02,3543.47C5564.79,3543.01 5564.31,3542.72 5563.82,3542.72L5563.79,3542.72C5563.07,3542.73 5562.48,3543.31 5562.48,3544.05C5562.48,3544.16 5562.49,3544.27 5562.52,3544.38L5563.43,3554.19C5562.25,3553.96 5560.57,3553.73 5558.54,3553.73C5555.7,3553.73 5552.86,3554.17 5550.07,3555.03C5549.47,3555.22 5549.09,3555.8 5549.15,3556.43C5549.22,3557.05 5549.71,3557.55 5550.34,3557.61C5550.48,3557.63 5564.86,3559.18 5585.77,3568.47C5602.68,3575.98 5629.43,3585.28 5647.45,3590C5639.25,3591.67 5632.16,3591.88 5629.15,3591.88C5628.2,3591.88 5627.58,3591.86 5627.38,3591.85C5618.79,3590.44 5606.11,3583.44 5605.98,3583.37C5605.79,3583.25 5605.56,3583.2 5605.34,3583.2L5605.32,3583.2C5604.59,3583.2 5604,3583.8 5604,3584.53C5604,3584.79 5604.09,3585.05 5604.23,3585.26C5604.83,3586.59 5604.93,3587.28 5604.93,3587.57C5604.38,3587.64 5603.82,3587.68 5603.29,3587.68C5591.41,3587.68 5580.48,3571.56 5580.38,3571.4C5580.13,3571.04 5579.73,3570.82 5579.3,3570.81C5578.86,3570.81 5578.46,3571 5578.21,3571.35C5563.86,3591.1 5572.7,3617.88 5573.08,3619.02C5573.29,3619.62 5573.9,3620 5574.54,3619.9C5575.18,3619.81 5575.63,3619.27 5575.65,3618.63C5576.02,3606.37 5582.13,3600.4 5594.39,3600.4C5616.27,3600.4 5652.06,3620.4 5665.95,3631.59C5684.88,3646.83 5700.36,3655.91 5700.52,3656.01C5700.97,3656.27 5701.54,3656.24 5701.96,3655.94C5702.38,3655.63 5702.59,3655.11 5702.48,3654.6L5699.8,3641.26C5726.7,3652.4 5773.27,3652.53 5775.29,3652.53C5775.88,3652.53 5776.41,3652.13 5776.56,3651.55C5776.72,3650.97 5776.47,3650.37 5775.95,3650.06C5766.36,3644.53 5753.04,3636.34 5745.95,3631.95C5750.29,3632.32 5754.82,3632.5 5759.48,3632.5C5804.13,3632.5 5849.4,3615.57 5849.86,3615.39C5850.45,3615.17 5850.79,3614.56 5850.7,3613.93C5850.59,3613.31 5850.05,3612.85 5849.43,3612.84C5832.27,3612.39 5797.86,3602.27 5788.95,3599.57C5811.71,3577.35 5823.59,3552.71 5824.27,3526.32C5825.41,3480.98 5785.77,3432.42 5785.43,3432.07C5785.18,3431.81 5784.82,3431.66 5784.47,3431.66L5784.45,3431.66C5783.72,3431.66 5783.13,3432.25 5783.13,3432.98C5783.13,3433.18 5789.88,3446.76 5789.95,3446.93C5792.72,3457.04 5793.68,3475.61 5793.97,3483.48C5778.64,3466.63 5756.86,3454.43 5729.13,3447.18C5705.79,3441.08 5684.45,3440.17 5673.81,3440.17C5670.02,3440.17 5667.86,3440.29 5667.77,3440.29C5667.18,3440.32 5666.7,3440.74 5666.55,3441.32C5666.43,3441.9 5666.7,3442.48 5667.21,3442.77C5679.3,3449.4 5683.68,3459.4 5685.04,3463.65C5656.11,3456.73 5641.86,3442.6 5634.97,3431.83C5627.32,3419.89 5626.83,3409.38 5626.82,3409.27C5626.8,3408.72 5626.45,3408.25 5625.93,3408.08C5625.41,3407.89 5624.83,3408.05 5624.48,3408.48L5607.34,3429.05C5590.79,3388.92 5610.61,3347.87 5610.81,3347.46C5611.04,3346.97 5610.97,3346.39 5610.61,3345.99C5610.25,3345.59 5609.68,3345.44 5609.18,3345.62C5594.41,3350.84 5582.63,3362.14 5578.46,3366.5C5570.18,3337.59 5576.02,3304.77 5593.98,3280.31C5610.7,3257.53 5635.63,3244.98 5664.13,3244.98C5695.64,3244.98 5715.43,3255.36 5726.4,3277.64C5736.45,3298.05 5738.5,3326.6 5738.5,3363.2C5738.5,3399.87 5749.43,3422.55 5758.61,3435.11C5768.61,3448.81 5771.83,3453.72 5772.25,3453.92C5772.74,3454.15 5773.32,3454.07 5773.72,3453.7C5774.13,3453.34 5774.25,3452.76 5774.06,3452.26C5768.23,3436.96 5776.39,3423.65 5778.41,3417.17C5823.77,3468.66 5876.46,3474.26 5897.18,3474.26C5902.24,3474.26 5905.13,3473.92 5905.24,3473.91C5905.9,3473.83 5906.4,3473.26 5906.4,3472.6C5906.41,3471.93 5905.93,3471.37 5905.25,3471.28C5904.75,3471.22 5854.64,3464.33 5820.77,3423.83C5799.24,3398.09 5793.15,3365.96 5804.05,3335.67C5811.97,3313.68 5807.56,3293.29 5803.18,3286.5C5818.82,3288.27 5851.49,3323.32 5851.61,3323.41C5852.07,3323.71 5852.68,3323.7 5853.13,3323.37C5853.58,3323.04 5853.79,3322.47 5853.61,3321.93C5842.45,3284.06 5784.31,3238.98 5778.81,3236.02C5781.8,3208.37 5806.5,3190.4 5806.75,3190.22C5807.22,3189.88 5807.43,3189.28 5807.24,3188.74C5807.07,3188.19 5806.56,3187.82 5805.98,3187.82L5664.66,3187.82C5649.57,3187.82 5596.7,3190.21 5550.34,3220.91C5529.11,3234.97 5512.41,3252.99 5500.72,3274.44C5487.11,3299.43 5480.21,3329.29 5480.21,3363.2C5480.21,3396.75 5488.15,3425.8 5503.8,3449.55" style="fill:rgb(15,110,170);fill-rule:nonzero;"/>
                </g>
                <g>
                    <g transform="matrix(0.1,0,0,0.1,0,-67.476)">
                        <path d="M5448.06,3358.9C5455.47,3362.61 5466.29,3362.47 5474.6,3362.47L5509.59,3362.47L5509.59,3362.01C5502.32,3357.42 5503.36,3348.97 5503.36,3341.26L5503.36,3286.11C5503.36,3278.4 5502.32,3269.95 5509.59,3265.35L5509.59,3264.91L5470,3264.91L5470,3265.35C5476.37,3271.29 5476.52,3277.95 5476.52,3286.41L5476.52,3347.79C5464.96,3347.34 5461.25,3339.04 5461.25,3328.51C5461.25,3318.58 5466.44,3310.72 5475.63,3306.88C5473.86,3306.57 5472.08,3306.57 5470.3,3306.57C5451.76,3306.57 5433.98,3314.72 5433.98,3335.77C5433.98,3345.85 5439.01,3354.45 5448.06,3358.9" style="fill:rgb(32,35,37);fill-rule:nonzero;"/>
                    </g>
                    <g transform="matrix(0.1,0,0,0.1,0,-67.417)">
                        <path d="M5116.89,3278.55C5122.08,3278.55 5127.57,3278.86 5132.46,3280.77L5132.46,3308.65L5127.57,3308.65C5122.08,3308.65 5115.26,3309.24 5113.19,3303.31L5112.44,3303.31L5112.44,3324.06L5113.19,3324.06C5114.52,3323.47 5116.59,3323.32 5118.67,3323.32L5132.46,3323.32L5132.46,3347.34L5127.71,3347.34C5120.45,3347.34 5112,3348.08 5108,3341.11L5107.55,3341.11L5107.55,3362.61L5108,3362.61C5109.63,3361.88 5112,3361.88 5114.22,3361.88L5199.46,3361.88L5199.46,3361.42C5196.65,3359.79 5193.53,3357.27 5193.53,3353.42C5193.53,3349.13 5197.83,3344.67 5200.35,3341.56L5218.89,3317.99L5218.89,3340.67C5218.89,3348.38 5219.93,3356.83 5212.66,3361.42L5212.66,3361.88L5252.54,3361.88L5252.54,3361.42C5245.27,3356.83 5246.31,3348.54 5246.31,3340.67L5246.31,3285.52C5246.31,3277.81 5245.27,3269.36 5252.54,3264.76L5252.54,3264.32L5212.66,3264.32L5212.66,3264.76C5219.93,3269.36 5218.89,3277.81 5218.89,3285.52L5218.89,3307.76L5203.47,3281.22C5194.62,3265.93 5191.87,3264.48 5166.11,3264.34L5166.11,3264.32L5100.44,3264.32L5094.51,3286.7L5095.24,3286.7C5100.88,3279.88 5108.59,3278.55 5116.89,3278.55M5161.9,3269.22C5163.32,3270.91 5164.62,3272.77 5165.81,3274.7L5195.91,3322.29L5164.32,3360.02C5159.1,3355.34 5159.88,3347.79 5159.88,3340.82L5159.88,3285.38C5159.88,3279.74 5159.37,3273.81 5161.9,3269.22" style="fill:rgb(32,35,37);fill-rule:nonzero;"/>
                    </g>
                    <g transform="matrix(0.1,0,0,0.1,0,-67.42)">
                        <path d="M5092.75,3362.48L5098.54,3339.65L5097.5,3340.39C5091.86,3344.24 5087.57,3345.87 5080.75,3345.87C5078.07,3345.87 5075.86,3345.87 5073.34,3345.28L5073.34,3285.67C5073.34,3277.98 5072.3,3269.51 5079.55,3264.92L5079.55,3264.48L5039.39,3264.48L5039.39,3264.92C5045.75,3270.85 5045.91,3277.53 5045.91,3285.98L5045.91,3345.28C5043.39,3346.01 5041.02,3346.17 5038.34,3346.17C5033.02,3346.17 5028.41,3344.69 5026.2,3339.65L5021.14,3362.03L5089.93,3362.03" style="fill:rgb(32,35,37);fill-rule:nonzero;"/>
                    </g>
                    <g transform="matrix(0.1,0,0,0.1,0,-67.457)">
                        <path d="M5283.16,3278.6C5305.07,3278.6 5314.92,3295.07 5314.92,3315.35C5314.92,3333.14 5309.18,3349.32 5289.04,3349.32C5280.22,3349.32 5271.69,3346.52 5264.49,3341.67L5265.52,3362.25L5287.72,3364.17C5302.12,3364.17 5317.56,3360.64 5328.74,3351.08C5330.45,3349.56 5331.99,3347.86 5333.44,3346.08C5343.5,3357.29 5358.65,3364.45 5375.57,3364.45C5405.77,3364.45 5430.35,3341.67 5430.35,3313.66C5430.35,3285.66 5405.77,3262.88 5375.57,3262.88C5358.46,3262.88 5343.18,3270.19 5333.12,3281.62C5331.38,3279.56 5329.52,3277.59 5327.41,3275.81C5315.65,3265.66 5303.01,3263.16 5288.01,3263.16C5278.16,3263.16 5268.31,3264.04 5258.76,3266.69L5251.4,3288.16C5261.26,3282.86 5271.69,3278.6 5283.16,3278.6M5375.57,3279.75C5391.35,3279.75 5404.19,3294.97 5404.19,3313.66C5404.19,3332.36 5391.35,3347.57 5375.57,3347.57C5359.79,3347.57 5346.95,3332.36 5346.95,3313.66C5346.95,3294.97 5359.79,3279.75 5375.57,3279.75" style="fill:rgb(32,35,37);fill-rule:nonzero;"/>
                    </g>
                </g>
            </g>
        </g>
    </g>
</svg>
